#!OML:ASF E:\Mandelcareful walks\Project 1\Capture day 1\Session 1\Subject1.ASF
:FULLY-SPECIFIED
:DEGREES
772
root 8.40619 16.2553 0.18617 -724.231 90.438 -730.5
lowerback 24.1408 2.90478 -7.5698
upperback 8.60974 2.67613 -1.48676
thorax -4.10921 1.54288 1.95195
lowerneck -26.2391 2.54408 -1.97385
upperneck 25.7787 5.6417 -3.05099
head 13.0632 1.88887 0.20208
rclavicle 1.59028e-014 -1.43125e-014
rhumerus -19.5644 7.42552 -83.4765
rradius 49.3057
rwrist -19.2263
rhand -13.6722 -29.3959
rfingers 7.12502
rthumb 12.4452 -59.0054
lclavicle 1.59028e-014 -1.43125e-014
lhumerus -17.4055 -10.4975 82.0522
lradius 40.7822
lwrist 19.1558
lhand -23.1083 -9.53895
lfingers 7.12502
lthumb 3.33847 20.4147
rfemur -37.6906 -12.5745 14.5102
rtibia 47.0845
rfoot -15.0371 -2.84609
rtoes -7.26166
lfemur -23.6124 7.52408 -23.1479
ltibia 47.8738
lfoot -26.788 2.39319
ltoes 10.9009
773
root 8.52173 16.2734 0.199808 -737.957 90.3904 -744.173
lowerback 23.9654 2.90188 -7.6103
upperback 8.595 2.67403 -1.49577
thorax -4.03964 1.53803 1.97219
lowerneck -26.1803 2.47693 -1.8937
upperneck 25.6501 5.53617 -3.16597
head 13.0055 1.83869 0.123147
rclavicle -2.82274e-014 -7.95139e-016
rhumerus -19.9062 6.9494 -83.3904
rradius 49.3133
rwrist -18.8476
rhand -13.7261 -28.565
rfingers 7.12502
rthumb 12.3932 -58.1776
lclavicle -2.82274e-014 -7.95139e-016
lhumerus -17.5178 -11.1416 82.2213
lradius 40.9179
lwrist 19.4345
lhand -23.2683 -9.7237
lfingers 7.12502
lthumb 3.18396 20.2323
rfemur -38.0828 -11.653 14.4379
rtibia 43.9506
rfoot -13.5304 -3.21765
rtoes -7.66745
lfemur -22.7743 7.66825 -23.1159
ltibia 47.2869
lfoot -26.8046 2.42388
ltoes 10.093
774
root 8.64203 16.2905 0.213469 -767.489 90.4823 -773.621
lowerback 23.8417 2.86772 -7.86766
upperback 8.52982 2.57346 -1.48428
thorax -4.04767 1.48412 2.1606
lowerneck -25.945 2.55592 -1.93371
upperneck 25.4716 5.64294 -3.16687
head 12.8863 1.89032 0.144871
rclavicle 9.93923e-015 -3.18055e-014
rhumerus -20.32 6.77386 -83.2728
rradius 49.3957
rwrist -18.8534
rhand -14.1334 -27.2714
rfingers 7.12502
rthumb 12.0005 -56.9073
lclavicle 9.93923e-015 -3.18055e-014
lhumerus -17.6673 -11.3592 82.4644
lradius 40.7776
lwrist 19.3866
lhand -23.3184 -10.2669
lfingers 7.12502
lthumb 3.13563 19.6897
rfemur -38.3741 -10.8406 14.1179
rtibia 40.8524
rfoot -11.3585 -3.56051
rtoes -8.27595
lfemur -21.88 7.77622 -23.2588
ltibia 46.66
lfoot -26.8196 2.51889
ltoes 9.42879
775
root 8.76579 16.309 0.230166 -774.348 90.7727 -780.335
lowerback 23.8113 2.74667 -8.07983
upperback 8.47454 2.36683 -1.47141
thorax -4.07841 1.38128 2.35098
lowerneck -25.7876 2.59963 -2.17503
upperneck 25.3242 5.71549 -2.9502
head 12.7797 1.9353 0.277559
rclavicle 1.15295e-014 1.74931e-014
rhumerus -20.6831 6.71025 -83.1468
rradius 49.4756
rwrist -18.955
rhand -14.2497 -26.8542
rfingers 7.12502
rthumb 11.8883 -56.4967
lclavicle 1.15295e-014 1.74931e-014
lhumerus -17.7869 -11.3707 82.7148
lradius 40.632
lwrist 19.3841
lhand -23.3283 -10.4221
lfingers 7.12502
lthumb 3.1261 19.5347
rfemur -38.4625 -10.249 13.6789
rtibia 37.9048
rfoot -8.86344 -3.81467
rtoes -8.58903
lfemur -20.8956 7.75191 -23.4271
ltibia 45.9974
lfoot -26.7849 2.62139
ltoes 8.77066
776
root 8.88985 16.3224 0.253112 -767.196 91.145 -773.079
lowerback 23.8251 2.55168 -8.0954
upperback 8.35963 2.09579 -1.4786
thorax -4.18581 1.25193 2.42358
lowerneck -25.5776 2.44093 -2.57691
upperneck 25.214 5.4531 -2.37974
head 12.6574 1.86708 0.509852
rclavicle 7.95139e-015 -1.03368e-014
rhumerus -21.1111 6.52178 -83.0836
rradius 49.451
rwrist -18.8029
rhand -14.1269 -26.3967
rfingers 7.12502
rthumb 12.0067 -56.0324
lclavicle 7.95139e-015 -1.03368e-014
lhumerus -18.0445 -11.6569 82.9066
lradius 40.6671
lwrist 19.5846
lhand -23.2958 -10.4159
lfingers 7.12502
lthumb 3.15746 19.5405
rfemur -38.4721 -9.91067 13.2925
rtibia 35.2582
rfoot -6.5071 -4.1333
rtoes -8.08108
lfemur -19.9482 7.59064 -23.5177
ltibia 45.3192
lfoot -26.6929 2.69378
ltoes 8.00569
777
root 9.02874 16.3322 0.275965 -766.896 91.4679 -772.675
lowerback 23.656 2.38561 -8.15006
upperback 8.28382 1.87416 -1.47578
thorax -4.16458 1.14103 2.52191
lowerneck -25.5578 2.35946 -2.51686
upperneck 25.1981 5.39845 -2.64708
head 12.6607 1.81308 0.38796
rclavicle -8.34896e-015 3.57812e-014
rhumerus -21.5316 6.38483 -82.9849
rradius 49.3599
rwrist -18.6498
rhand -13.975 -25.7578
rfingers 7.12502
rthumb 12.1532 -55.3847
lclavicle -8.34896e-015 3.57812e-014
lhumerus -18.2588 -11.8137 83.1316
lradius 40.6154
lwrist 19.7179
lhand -23.2154 -10.5325
lfingers 7.12502
lthumb 3.23508 19.4227
rfemur -38.4728 -9.74032 12.9748
rtibia 32.9633
rfoot -4.54744 -4.55438
rtoes -7.39077
lfemur -18.9313 7.46508 -23.6347
ltibia 44.6363
lfoot -26.6711 2.88362
ltoes 7.16561
778
root 9.16751 16.3396 0.304868 -765.62 91.9631 -771.332
lowerback 23.4463 2.19752 -8.28541
upperback 8.26699 1.62113 -1.46435
thorax -4.05405 1.01205 2.68482
lowerneck -25.672 2.19179 -2.97063
upperneck 25.1776 5.17821 -2.12679
head 12.6418 1.74235 0.622522
rclavicle 2.78299e-015 1.98785e-014
rhumerus -21.8332 6.21963 -82.8393
rradius 49.3732
rwrist -18.57
rhand -12.8272 -28.0908
rfingers 7.12502
rthumb 13.2597 -57.6491
lclavicle 2.78299e-015 1.98785e-014
lhumerus -18.3624 -11.9555 83.4084
lradius 40.6077
lwrist 19.8453
lhand -23.459 -10.5421
lfingers 7.12502
lthumb 2.99983 19.4165
rfemur -38.532 -9.67258 12.5312
rtibia 31.0593
rfoot -2.91279 -5.52078
rtoes -6.96044
lfemur -17.9764 7.19147 -23.8367
ltibia 43.9865
lfoot -26.6966 2.9693
ltoes 7.18262
779
root 9.30908 16.3439 0.33871 -764.572 92.2608 -770.205
lowerback 23.2589 2.07015 -8.23162
upperback 8.19019 1.4748 -1.44135
thorax -4.03112 0.938066 2.72186
lowerneck -25.7437 2.10534 -2.7744
upperneck 25.1975 5.06267 -2.38565
head 12.6798 1.673 0.471915
rclavicle 1.43125e-014 -2.38542e-015
rhumerus -22.3012 5.8044 -82.7133
rradius 49.5406
rwrist -18.3439
rhand -13.4563 -27.2398
rfingers 7.12502
rthumb 12.6533 -56.8365
lclavicle 1.43125e-014 -2.38542e-015
lhumerus -18.7231 -12.1415 83.7268
lradius 40.7777
lwrist 19.7858
lhand -23.7178 -10.5273
lfingers 7.12502
lthumb 2.74985 19.4347
rfemur -38.5895 -9.50999 12.2724
rtibia 29.5418
rfoot -1.3359 -6.98962
rtoes -6.61594
lfemur -16.972 7.04874 -23.8377
ltibia 43.3581
lfoot -26.8433 2.89239
ltoes 7.75459
780
root 9.45 16.3463 0.379175 -762.677 92.4408 -768.222
lowerback 23.157 1.97693 -8.10439
upperback 8.04744 1.37188 -1.36432
thorax -4.12938 0.888142 2.76106
lowerneck -25.813 2.07614 -2.47761
upperneck 25.4318 5.05972 -2.80189
head 12.8124 1.63718 0.266333
rclavicle 1.39149e-014 5.1684e-015
rhumerus -22.8101 5.44409 -82.5314
rradius 49.5998
rwrist -18.2132
rhand -13.1963 -27.3937
rfingers 7.12502
rthumb 12.9039 -56.9748
lclavicle 1.39149e-014 5.1684e-015
lhumerus -19.1643 -12.1037 84.0815
lradius 40.9219
lwrist 19.682
lhand -23.6079 -10.3895
lfingers 7.12502
lthumb 2.85608 19.5711
rfemur -38.6393 -9.35291 12.2007
rtibia 28.4223
rfoot 0.347371 -8.66327
rtoes -6.69242
lfemur -15.9924 6.98093 -23.6931
ltibia 42.7674
lfoot -26.9708 2.92685
ltoes 7.55215
781
root 9.59521 16.3487 0.42322 -760.536 92.7355 -765.945
lowerback 23.2619 1.86445 -8.01964
upperback 7.84861 1.21166 -1.2704
thorax -4.38676 0.816199 2.85313
lowerneck -25.9964 1.97303 -2.41606
upperneck 25.7793 4.96165 -2.90772
head 12.9957 1.57526 0.202219
rclavicle -1.55052e-014 -3.97569e-016
rhumerus -23.2319 5.35238 -82.3122
rradius 49.4005
rwrist -18.3248
rhand -13.6763 -27.2525
rfingers 7.12502
rthumb 12.4412 -56.8622
lclavicle -1.55052e-014 -3.97569e-016
lhumerus -19.5831 -12.0326 84.4629
lradius 40.9634
lwrist 19.7693
lhand -23.5015 -10.4529
lfingers 7.12502
lthumb 2.95879 19.5063
rfemur -38.5797 -9.32869 12.0826
rtibia 27.6933
rfoot 2.05684 -10.1203
rtoes -6.74587
lfemur -15.0141 6.87406 -23.6005
ltibia 42.2194
lfoot -26.9787 3.11431
ltoes 6.3431
